<svg id="b43ecbbd-04d8-432a-b781-a2c14dd70247" data-name="Capa 1" xmlns="http://www.w3.org/2000/svg" viewBox="0 0 806.81 507.45"><defs><style>.fa4f5324-3ab8-470c-a287-5db570de19be{fill:#fff;stroke:#fff;stroke-miterlimit:10;stroke-width:0.75px;}</style></defs><path class="fa4f5324-3ab8-470c-a287-5db570de19be" d="M344.26,465.63c-4.26,8-4.71,8.11-12.51,2.05a63.91,63.91,0,0,1-5.27-4.59c-6.53-6.33-11.2-13.15-4.54-22.73-7.75-2.49-14.76-4.91-21.87-6.94a11.44,11.44,0,0,1-7.47-5.83c-4.24-7.44-9-14.58-13.82-22.28,11.48,3.23,22.27,6.4,33.14,9.28,4.65,1.23,9.56,1.52,14.15,2.89,5.21,1.56,6.86-1,7.8-6.45l-53.59-33.54c3.66-1.89,7.41-4.14,11.42-5.74,1.33-.53,3.56.27,5,1.11,14.36,8.37,28.64,16.88,43.42,25.63,1-2.12,2.36-4.7,3.5-7.37q31.8-74,63.47-148.06c1.33-3.12,3.13-3.83,5.69-2.37A84.3,84.3,0,0,1,440.65,266c.83,1.2.47,4.2-.5,5.51-5.26,7-11.85,13.24-16.2,20.77-11.95,20.72-23,41.94-34.43,63l1.3.86c4.28-4.66,8.38-9.52,12.9-13.95,6.77-6.63,13.7-13.12,20.84-19.34,5.42-4.73,11.49-5.14,18-1.65,17.77,9.59,19.34,17.34,16.52,31.58-1.77,8.92-5,17.56-7.62,26.3-.55,1.86-1.31,3.65-2.44,6.74,9.73-6.39,19.3-10.16,24.15-20.79,5.32-11.66,12.74-22.45,23.35-30.1A32.6,32.6,0,0,1,511,329.28a68.26,68.26,0,0,1,40.19,6.93c14.75,7.53,20.69,19.8,15.72,35.62-3.31,10.53-8.65,20.42-13.16,30.56-.8,1.79-2,3.38-2.51,5.78,1.07-.75,2.2-1.43,3.2-2.26a121.93,121.93,0,0,0,27.53-32c8.59-14.49,18.88-27.87,32.86-37.86q26.11-18.66,44.6,7.42c.86,1.21,1.74,2.39,2.93,4,1.84-3,3.9-5.47,5-8.32s2.92-3.81,5.29-2.75c6.77,3,13.48,6.26,20,9.81,2.45,1.34,3.63,3.8,1.45,6.75-15.44,21-25.21,44.88-34.85,68.8-3.29,8.15-5.89,16.58-8.74,24.91a50.79,50.79,0,0,0-1.1,5.8c2.92-2.69,5-4.12,6.43-6,12.74-16.23,25.94-32.15,37.8-49,5.32-7.57,8.32-16.91,11.65-25.71A807.25,807.25,0,0,1,745,282.58c.46-.87.81-1.79,1.52-3.37-7.86-1-15.36-2-22.87-2.85-12.23-1.43-24.46-2.76-36.69-4.19a8.83,8.83,0,0,1-3.83-1c-9.46-6.35-15.68-15.43-21.73-24.66l.76-1.35c5.46.79,10.93,1.51,16.38,2.4,24.12,3.92,48.25,7.8,72.33,12,3.41.59,4.74-.36,5.88-3.3,2.42-6.2,5.3-12.21,7.66-18.43,1.85-4.85,5.11-6.27,9.84-5,10.61,2.8,19.32,8.73,26.83,16.57,2.46,2.57,2.69,5.09,0,7.81-1.5,1.52-2.59,3.45-4.58,6.17,4.42,0,8.12.33,11.74-.07,5-.56,8.28,1.33,10.49,5.68,1.47,2.89,3.12,5.7,5.16,9.4-11.27,0-21.38.2-31.47-.11-3.85-.12-6.08,1.25-8.17,4.27C767.84,306.07,755,331.62,743,357.63c-8.64,18.73-16.66,37.72-21.52,57.88a32.72,32.72,0,0,0-.62,4.44,22.25,22.25,0,0,0,.38,3.13c8.55-9.1,16.53-17.27,24.14-25.76,9.22-10.29,18.06-20.93,27.27-31.23a9.39,9.39,0,0,1,5.84-2.74c5.36-.38,10.77-.13,16.15-.13l.39,1.63c-8.51,11-17,22.14-25.53,33.13q-24.87,31.9-49.85,63.73c-2.77,3.54-5.8,4-9.86.74-9-7.16-14.59-16.7-17.94-27.61-.53-1.74-.81-3.55-1.32-5.84-5.6,7.35-10.79,14.61-16.44,21.48-9.73,11.82-19.81,23.34-29.59,35.12-2.45,2.95-5.15,3.44-8.38,2.11a71.54,71.54,0,0,1-9.48-4.39c-11.41-6.77-13.37-11.4-10-24.32,2.36-9,5.18-17.79,8.09-27.67-6.19,7.32-11.74,14.13-17.56,20.71-8.5,9.6-17,19.22-25.85,28.48-8.67,9.07-13.44,8.68-23.72,1.56-11.6-8-15.48-17.89-10.62-31.27,2.89-8,5.35-16.09,8-24.15.34-1,.6-2.08.89-3.11-13.43,6.24-23.37,16.13-32.86,27-9.08,10.37-19.41,19.68-29.59,29-12.6,11.53-20.39,11.52-33.64.73-8-6.54-12.6-14.36-11.93-25.44a218.85,218.85,0,0,1,10.09-55.33c.4-1.22.7-2.47,1.47-5.16-8,5.91-16.09,9.11-21,17.1-15.64,25.5-36.19,46-63.32,59.25C361.57,477.3,354.77,476,344.26,465.63Zm88.79-128.07c-2.37,1.46-4.07,2.17-5.34,3.35-11.61,10.67-23.1,21.47-34.7,32.15a113.73,113.73,0,0,0-29.41,43.2c-2.39,6.17-5.68,12-8.52,18-1.51,3.2-2.92,6.45-4.38,9.68a13,13,0,0,0,5.79-2.42q24.83-17.58,49.58-35.25a12.76,12.76,0,0,0,3.38-3.53C421.62,383,428.42,361.24,433.05,337.56Zm110.31,9a77.24,77.24,0,0,0-6.74,3.86A135.37,135.37,0,0,0,496.3,396a59.63,59.63,0,0,0-4.93,12.47c-1.87,6.66-.11,12,4.21,14.77,7.62,5,25.48,1.67,29.77-6.41,6-11.26,11.71-22.79,15.92-34.78C545.15,371,546.46,359.15,543.36,346.55ZM577.68,455c18.64-14.28,72.33-82.69,76.59-97.36-6-4.73-12.83-5.77-19-1.73-6.44,4.21-12.76,9.26-17.57,15.2-18.48,22.86-29.52,49.62-38.57,77.28C578.47,450.33,578.23,452.41,577.68,455Zm-100.93-11.8c-1.34,5.78-3.08,12.17-4.23,18.66-.51,2.88.55,5.79,4.53,3.79,10.3-5.17,19.15-12.25,27.2-20.37ZM386.69,436c-9.26,5.57-18.81,10.92-23.79,21.32C374.63,454.54,379.8,444.34,386.69,436Z" transform="translate(-17.67 -30.54)"/><path class="fa4f5324-3ab8-470c-a287-5db570de19be" d="M501.84,226.21l60.55-80.57c3.9-5.19,6.68-5.5,11.33-.83a41.72,41.72,0,0,1,12,22.55,23.41,23.41,0,0,1-1.48,11.54c-8.46,22.72-17.25,45.32-25.92,68a2.41,2.41,0,0,0,.21,2.3c1.89-2.7,3.75-5.42,5.66-8.11,17.73-24.95,35.4-49.95,53.26-74.81,3.19-4.44,7.28-8.23,10.76-12.49,2.58-3.15,6-3.78,8.79-1.63a47.63,47.63,0,0,1,10.8,11.25c1.31,2,.59,6.22-.57,8.82-13.32,30-25.18,60.44-34.45,91.9-1.11,3.77-1.7,7.69-2.53,11.53l1.38.85c2.35-2.4,5-4.58,7-7.23a318.63,318.63,0,0,0,35.4-59.52c3-6.61,6.92-9,13.59-8.55,1.77.14,3.56,0,6.41,0-1.61,3.92-2.71,7-4.06,9.88-13,28-28.11,54.73-46.86,79.32-.2.27-.4.54-.61.79-10.93,13.42-21.66,13.59-32.65-.23-2.54-3.21-3.62-8.24-3.83-12.51-.81-16.5,4.59-31.77,10.49-46.86,2.46-6.28,5-12.53,7.51-18.79l-1.1-.74c-4.63,5.91-9.86,11.45-13.79,17.79-14.28,23.05-28.17,46.34-42.11,69.61-4.24,7.07-4.73,7.37-11.44,2.4-3.2-2.37-6-5.23-9.15-7.73-9.54-7.63-10.65-17-5.85-27.64q17.32-38.37,34.76-76.7c1.08-2.39,2.3-4.72,3.63-7.45-7.61,4.81-33.64,36.07-46.59,55.15C498.71,257.68,491,280.15,487,304.7c-9.35-2.38-15.86-7.57-21.28-14.16-7.08-8.6-9.26-18.15-5-28.9,5.26-13.27,10.22-26.66,15.31-40a4.49,4.49,0,0,0,.28-3.23c-2,2.24-4,4.5-6,6.72-5.37,5.92-10.57,12-16.26,17.6-1.54,1.51-5.2,2.75-6.84,2a125,125,0,0,1-18.31-10.77c-3.72-2.67-4.76-7.13-3.53-11.75,3-11.21,6-22.41,9-33.38-4.11,4.83-8.54,10.18-13.14,15.4q-14,15.91-28.27,31.68a79,79,0,0,1-7.1,6.28c-3.3,2.85-7.35,3.4-10.63,1a138.62,138.62,0,0,1-18.55-15.58c-1.89-2-1.59-6.6-1.34-9.94.33-4.43,1.59-8.78,2.64-14.19-6.27,5.45-11.66,10.69-17.62,15.19-9.67,7.31-19.61,14.28-29.62,21.13-6.82,4.67-13.58,3.81-20.39-.76-8.88-6-16.18-13.22-20.88-23.43l-17.66,22c.13.5.11,1,.31,1.1,9.23,5.43,12.23,13.75,11.93,24.08-.35,12.16-.14,24.33,0,36.49,0,3.12-.76,4.76-3.93,5.76-5.65,1.78-11.12,4.13-16.7,6.26-.6-18.47.45-37.26-4.73-55.89-6.48,5.25-6.64,12.46-7.84,19.24s-2.33,13.65-3.66,21.51c-4-3.89-7.52-7-10.61-10.59-.83-1-.61-3.17-.35-4.72,1.15-6.71,2.62-13.36,3.68-20.08a8.2,8.2,0,0,0-1.14-4.82,46.38,46.38,0,0,0-4.16-5.6c-9.7-12.61-9.87-26.42-6.25-41.26,6.81-27.91,17.28-54.48,28.83-80.64,6.91-15.66,14.68-30.94,22-46.4.55-1.15,1.05-2.32,1.7-3.76-8.08,0-15.71.14-23.32-.1-2.18-.06-5-.59-6.36-2C224.9,69.37,219,62.21,213,55.11c-.68-.8-.8-2.08-1.42-3.78l34.52,4.42c6.76.86,13.54,1.62,20.29,2.56,2.57.36,3.83-.44,4.79-2.94,2.37-6.21,5.15-12.26,7.73-18.4,2.28-5.42,4.41-7,10-5.52a55.32,55.32,0,0,1,27.43,17.18c1.95,2.2,1.91,4.34-.13,6.63-1.63,1.81-2.91,3.94-5,6.91,4.86,0,8.79.29,12.64-.08,4.41-.42,7.33,1.15,9.31,5,1.56,3.05,3.3,6,5.46,9.88-10.1,0-19.21.45-28.25-.15C304,76.4,300,78.54,297,83.83c-9.67,17.08-20.53,33.58-28.93,51.26-10.83,22.79-19.79,46.48-29.38,69.85-1.43,3.5-2,7.38-2.77,11.11a50.53,50.53,0,0,0-.45,5.75c3.2-3.15,5.61-5.33,7.8-7.71,9.92-10.79,20-21.48,29.55-32.56a49,49,0,0,0,7.87-13.07c9.18-22,19.06-43.58,33.44-62.79,1-1.33,2.05-2.63,3.13-3.89,14.49-17,23.09-18.59,42.13-6.7,6.13,3.84,11.58,8.89,16.94,13.81,3.95,3.62,4.83,8.26,3.23,13.7-3.74,12.74-8.69,24.83-17.17,35.2-11.81,14.42-23.27,17.47-40.8,11.06-2-.73-4-1.51-5.88-2.25-10,18.71-19.61,46.77-18.15,54.55,9.23-5.19,18.36-9.87,27-15.3a225.2,225.2,0,0,0,43.49-35,40.85,40.85,0,0,0,6.77-9.74C386,139,398.09,117.57,416.16,100.27a72.55,72.55,0,0,1,16.56-11.85c11.87-6.16,23.58-3.49,32.45,6.54,2.52,2.85,4.69,6,7.31,9.39,1.77-2.92,3.78-5.43,4.88-8.3s3.05-3.72,5.37-2.68c6.77,3,13.49,6.26,20,9.83,2.46,1.34,3.48,3.83,1.31,6.77-15,20.28-24.55,43.36-33.9,66.5-3.61,8.92-6.49,18.13-9.64,27.23a8.22,8.22,0,0,0-.18,4.58c19.7-18.3,37.54-37.87,48-64.54a73.06,73.06,0,0,1,8.11,3.89c15,9.42,15.42,9.81,8.56,25.81s-14.49,31.76-21.78,47.61L501,225.9ZM465,115.11c-6.09-5.18-12.8-6.64-18.87-2.69-6.85,4.46-13.64,9.72-18.73,16-17.91,22.16-28.74,48.07-37.57,74.88-.86,2.62-1.43,5.32-2.14,8C416.81,181.93,443.78,151.12,465,115.11ZM320,153.77c4,1.24,6.91,2.48,10,3,5.71,1,11.45.94,16-3.4,7.91-7.6,11.74-17.23,12.85-27.95.46-4.46-2.37-6.78-6.86-6a14.07,14.07,0,0,0-5.11,1.88C334.55,129,327.24,140.77,320,153.77Z" transform="translate(-17.67 -30.54)"/><path class="fa4f5324-3ab8-470c-a287-5db570de19be" d="M218,399.58c20.3,31.73,43.2,60.38,71.71,84.23,3.58,3,7.89,5.1,11.86,7.62l1.34-1.22c-1.06-2.66-1.82-5.49-3.23-8-13.69-23.95-27-48.14-41.54-71.58-4.56-7.36-4.63-12.76.5-19.42a24.93,24.93,0,0,1,2.41,2.59c20,28.37,37.83,58,52.41,89.48.56,1.21,1.05,2.45,1.57,3.67,4.66,11.17,3.68,14.25-7.37,19.54-10.55,5.06-21.37,6.43-31.45-4.94-31.49-35.5-63.43-70.6-95.28-105.78-3.38-3.74-3-6.24.67-9.73,8.15-7.77,16.94-13.3,28.46-15.18,10.59-1.74,20.83-5.57,31.27-8.5-10.76-26.67-76.93-94-96.28-97,13,22.87,29.34,42.2,44.62,62.56,1.46-.6,2.67-1,3.82-1.58,6.65-3.14,6.81-3.23,10.41,3.54A121.89,121.89,0,0,1,211,345.29c2.27,6.27,1.37,7.34-5,9A352.81,352.81,0,0,0,86.88,409.88c-4.73,3.4-8.75,7.77-13.1,11.69l1.17,2a99.55,99.55,0,0,0,10-2.87q25.2-10.08,50.28-20.42c5.54-2.26,11.21-4.32,16.44-7.16,4.7-2.56,8.41-2,12.12,1.46,1.32,1.22,2.74,2.33,4.75,4-6.2,2.77-11.77,5.51-17.53,7.79q-35,13.83-70.07,27.35c-3.68,1.41-7.75,1.82-11.64,2.69-4.74,1.05-7.43-1.18-9.35-5.34a35.27,35.27,0,0,1-2.94-20,18.48,18.48,0,0,1,9.69-14.3q54-30.21,107.84-60.61c1.43-.8,2.85-1.62,4.53-2.58-7.39-9.5-15-18.54-21.77-28.16-8.41-12-16.55-24.16-24-36.73-5.09-8.59-4.18-11.43,4.28-16.78a50.91,50.91,0,0,1,15.48-6.29c5.92-1.36,11.44.68,15.94,5.15,32,31.82,64.13,63.53,96,95.48,3.49,3.49,6,4.59,10.54,2,16.57-9.48,33.45-18.43,49.95-28,4.57-2.65,8.23-6.87,12.3-10.37l-.89-2.06c-5.11.53-10.36.48-15.3,1.69-19.34,4.72-38.56,9.93-57.88,14.71a10.58,10.58,0,0,1-6.71-1c-2.46-1.22-4.44-3.38-7.3-5.69,2.71-1.14,4.72-2.11,6.8-2.86,25.88-9.26,52.24-16.63,79.6-20,12-1.47,15.33.92,17.91,12.92,2.94,13.67-.74,22.46-12.63,28.59q-59.41,30.64-119,61Z" transform="translate(-17.67 -30.54)"/><path class="fa4f5324-3ab8-470c-a287-5db570de19be" d="M143.57,174.69a128.36,128.36,0,0,0,40.48-27.18,218.23,218.23,0,0,0,22.89-26.89c6.2-8.57,4.1-11.83-6.35-12.54-10.78-.74-20.85,2-30.3,6.84-28.09,14.47-49.53,35.77-63.73,64-7.73,15.37-6.27,23.28,6.29,35.19,8.31,7.88,17.5,14.84,26.3,22.21l3.35,2.79-18.2,12.36c-10.61-8.9-22-18.27-33.15-27.91-3.75-3.25-6.91-7.2-10.34-10.83-12.69-13.37-14.28-28.95-9.43-46,5.81-20.4,17.41-37.27,31.68-52.49a214.79,214.79,0,0,1,61.33-45.7c16.85-8.41,31.45-6.45,44.48,6.89,6,6.18,11.73,12.7,17.38,19.24,7.19,8.32,8.09,17.83,5,28.11-6,20.11-17.88,36.66-31.32,52.26-3.47,4-7.57,7.51-11.12,11.48-4,4.45-8.9,5.74-14.45,4.72-11.22-2.08-21-7.24-29.63-14.59A8.61,8.61,0,0,1,143.57,174.69Z" transform="translate(-17.67 -30.54)"/><path class="fa4f5324-3ab8-470c-a287-5db570de19be" d="M23.7,278.82c18.78,12.69,38.89,13,59.33,10.95a151.26,151.26,0,0,0,41.85-10.69c2.53-1,4-.94,5.76,1.55,11.39,16.15,23,32.16,34.51,48.23.45.63.77,1.35,1.74,3.09-4.53-1.65-8-3-11.57-4.19-9.61-3.21-19.2-6.49-28.91-9.37a10.69,10.69,0,0,0-6.83.79c-4.06,1.86-7.82,4.37-12.73,7.2l39,16.3c-4.29,2.41-8,4.82-12.06,6.64a7.73,7.73,0,0,1-5.52-.06q-16.35-6.7-32.51-13.9a9.67,9.67,0,0,0-8.43-.21c-12.19,5-24.64,9.16-38,9.22-14.54.07-24.42-6.86-28.67-20.82C16,308.49,18,293.76,23.7,278.82Z" transform="translate(-17.67 -30.54)"/><path class="fa4f5324-3ab8-470c-a287-5db570de19be" d="M186.45,519.46c9.89-25.24,16.24-51.59,23.36-78.55,3.42,3.78,6.38,6.86,9.08,10.16a4.72,4.72,0,0,1,.78,3.63c-6.41,24.92-12.39,50-22.78,73.66-3.91,8.91-4.21,11-17,7.86-4.53-1.13-8.93-3.67-12.81-6.38a18.4,18.4,0,0,1-8.2-16.74c1.13-23,2.17-45.92,3.33-68.88.41-8.15,1.32-16.28,1.47-24.43.07-3.93,1.12-6.57,4.67-8.35,2.35-1.19,4.47-2.83,7.13-4.55,3.46,4.34,7,8.49,10.16,12.9.79,1.11.65,3.12.45,4.65-3.45,26.61-6.41,53.26-4.12,80.16.42,5,1.69,9.87,2.57,14.81Z" transform="translate(-17.67 -30.54)"/></svg>